<?xml version="1.0" encoding="UTF-8"?>
<svg version="1.1" xmlns="http://www.w3.org/2000/svg" width="916" height="906">
<path d="M0 0 C1.79054327 -0.00374286 3.58108491 -0.00834689 5.37162399 -0.01373065 C10.26141313 -0.02589774 15.15113353 -0.02570764 20.04093432 -0.02334189 C25.32678438 -0.02293212 30.61261287 -0.03398819 35.89845276 -0.04345703 C46.24365988 -0.06003396 56.5888442 -0.0655651 66.93406349 -0.06668179 C75.34890857 -0.06763393 83.76374616 -0.07175251 92.17858887 -0.07808304 C116.06723267 -0.09568721 139.95585855 -0.10492332 163.84450889 -0.10342209 C165.77422235 -0.10330222 165.77422235 -0.10330222 167.74291992 -0.10317993 C169.675006 -0.10305729 169.675006 -0.10305729 171.64612412 -0.10293217 C192.5083225 -0.10211973 213.3704486 -0.12124898 234.23262608 -0.14945666 C255.68416958 -0.17823095 277.13567789 -0.19199443 298.58724117 -0.19026911 C310.61836234 -0.18960673 322.64940776 -0.19503213 334.68051147 -0.21662521 C344.92628209 -0.23489698 355.17194261 -0.23913537 365.41772252 -0.22560637 C370.63757838 -0.21910662 375.8572234 -0.21885039 381.07705879 -0.23631287 C421.15476012 -0.36213074 421.15476012 -0.36213074 438.0637207 4.26742554 C439.16541092 4.55347467 440.26710114 4.83952381 441.4021759 5.1342411 C443.85318388 5.79667254 446.23058944 6.5534383 448.6262207 7.39242554 C449.47571289 7.68391479 450.32520508 7.97540405 451.20043945 8.27572632 C465.94056166 13.5342323 479.60609628 20.81500644 492.0637207 30.26742554 C492.84875977 30.83074585 493.63379883 31.39406616 494.44262695 31.97445679 C525.73929169 55.43371648 545.8143447 90.13799062 553.0637207 128.26742554 C553.23276592 129.14175543 553.40181114 130.01608532 553.57597893 130.91691005 C555.20933589 140.30137903 555.34760629 149.50396125 555.32441711 158.98937988 C555.32744278 160.75659943 555.33133433 162.52381767 555.33600968 164.29103363 C555.34624519 169.11627841 555.34411924 173.94144853 555.33982909 178.76669931 C555.3373537 183.98297828 555.34638619 189.19923964 555.35386658 194.41551208 C555.36659383 204.62369145 555.36840967 214.83184448 555.36606631 225.04003043 C555.3642805 233.34238283 555.36603845 241.64472726 555.37029076 249.9470787 C555.37088595 251.13046157 555.37148113 252.31384444 555.37209436 253.5330874 C555.37330617 255.93747156 555.3745203 258.34185572 555.37573674 260.74623989 C555.38660504 283.27864151 555.38445336 305.81102816 555.37835189 328.34343062 C555.37318547 348.92890734 555.3844322 369.5143367 555.40345011 390.09980406 C555.4228522 411.26431409 555.43108022 432.42880175 555.42732686 453.59332073 C555.42541814 465.46451366 555.42787002 477.33566631 555.4420414 489.20685196 C555.45398654 499.3150598 555.45532517 509.42320257 555.44325123 519.53141136 C555.43738402 524.68212557 555.43620295 529.83272093 555.44825363 534.98342705 C555.45918557 539.71119196 555.45592319 544.43873987 555.44199195 549.16649495 C555.43936494 550.86427967 555.44164766 552.5620818 555.44972781 554.25984932 C555.51714874 569.50070506 554.01349853 584.73661665 549.3762207 599.32992554 C549.12275879 600.14735229 548.86929688 600.96477905 548.6081543 601.80697632 C540.59557295 626.75797197 527.10569781 647.47906136 509.0637207 666.26742554 C508.53093506 666.82357544 507.99814941 667.37972534 507.44921875 667.95272827 C488.81248962 687.04728471 463.63203067 700.55994144 437.8762207 707.14242554 C437.13001465 707.33360962 436.38380859 707.5247937 435.61499023 707.72177124 C421.86320828 710.96328372 408.10823055 711.56283341 394.05693054 711.52812195 C392.29537143 711.53114986 390.53381363 711.53504252 388.7722581 711.53971452 C383.97659428 711.54992083 379.18100583 711.54783167 374.38533604 711.54353392 C369.19569493 711.54105321 364.00607134 711.55009745 358.81643677 711.55757141 C348.66682195 711.57028308 338.51723364 711.57211653 328.36761221 711.56977115 C320.11300509 711.56798392 311.85840598 711.56974628 303.60379982 711.57399559 C301.83766131 711.57488837 301.83766131 711.57488837 300.03584323 711.57579919 C297.64345766 711.57701102 295.2510721 711.57822515 292.85868654 711.57944157 C270.45217139 711.59030343 248.0456713 711.58816099 225.63915531 711.58205672 C205.17026669 711.57688837 184.70142567 711.5881433 164.23254647 711.60715494 C143.18094268 711.62655693 122.12936138 711.63478523 101.0777486 711.63103169 C89.272552 711.62912329 77.46739592 711.63157204 65.66220665 711.64574623 C55.61262789 711.6576911 45.56311458 711.65903015 35.51353487 711.64695606 C30.39317856 711.64108926 25.27294178 711.63990674 20.15259361 711.65195847 C15.4527043 711.66289139 10.75303327 711.65962692 6.05315385 711.64569678 C4.36555295 711.64307009 2.67793452 711.64535146 0.99035092 711.65343264 C-38.17792949 711.82776838 -72.95067623 698.20363949 -102.9362793 673.26742554 C-103.50411133 672.81850952 -104.07194336 672.36959351 -104.65698242 671.90707397 C-106.11964862 670.73779638 -107.53275192 669.50706798 -108.9362793 668.26742554 C-108.9362793 667.60742554 -108.9362793 666.94742554 -108.9362793 666.26742554 C-109.5962793 666.26742554 -110.2562793 666.26742554 -110.9362793 666.26742554 C-110.9362793 665.60742554 -110.9362793 664.94742554 -110.9362793 664.26742554 C-111.5962793 664.26742554 -112.2562793 664.26742554 -112.9362793 664.26742554 C-115.69830672 661.29705553 -118.14998208 658.07180353 -120.65551758 654.88363647 C-121.88496267 653.3321827 -123.14251093 651.80312533 -124.40112305 650.27523804 C-146.21876088 623.18414272 -156.45639294 589.26891269 -156.32395935 554.80543518 C-156.32814295 553.00660077 -156.33362604 551.20776901 -156.34027916 549.40894204 C-156.35461798 544.51482343 -156.3505256 539.62087486 -156.34311235 534.72674739 C-156.33835407 529.42939328 -156.35091391 524.13207457 -156.36112976 518.83473206 C-156.37827134 508.47569012 -156.37916742 498.11670897 -156.37391686 487.75765654 C-156.3698652 479.33240741 -156.37133051 470.90717616 -156.37666512 462.48192787 C-156.37741354 461.27994816 -156.37816196 460.07796844 -156.37893306 458.8395651 C-156.38046464 456.3972538 -156.38200298 453.95494251 -156.38354803 451.51263122 C-156.39725632 428.64110372 -156.39184717 405.76961049 -156.38036282 382.89808378 C-156.37043256 362.00636174 -156.38337055 341.1147283 -156.40729701 320.22301992 C-156.4317207 298.73406014 -156.44128782 277.24514156 -156.43464428 255.75616819 C-156.43115929 243.70669911 -156.43333649 231.65729812 -156.45089531 219.60783958 C-156.46565823 209.35042023 -156.46619942 199.09311694 -156.4488244 188.83569976 C-156.44034561 183.60986861 -156.43808802 178.38424442 -156.45347595 173.15842438 C-156.46742667 168.3610085 -156.46242817 163.56397485 -156.44323672 158.7665805 C-156.43950796 157.04467258 -156.44230676 155.32273327 -156.45284837 153.60085358 C-156.54428503 137.50196306 -154.0352463 121.81017816 -148.6862793 106.57992554 C-148.24022339 105.28514282 -148.24022339 105.28514282 -147.78515625 103.96420288 C-141.05951255 84.95048455 -131.38302808 68.89931751 -118.08862305 53.77914429 C-115.94032623 51.47752886 -115.94032623 51.47752886 -114.9362793 49.26742554 C-114.2762793 49.26742554 -113.6162793 49.26742554 -112.9362793 49.26742554 C-112.9362793 48.60742554 -112.9362793 47.94742554 -112.9362793 47.26742554 C-112.2762793 47.26742554 -111.6162793 47.26742554 -110.9362793 47.26742554 C-110.2762793 45.94742554 -109.6162793 44.62742554 -108.9362793 43.26742554 C-108.2762793 43.26742554 -107.6162793 43.26742554 -106.9362793 43.26742554 C-106.9362793 42.60742554 -106.9362793 41.94742554 -106.9362793 41.26742554 C-77.88808474 13.76056376 -39.60416183 -0.07909166 0 0 Z " fill="#FED02B" transform="translate(242.936279296875,100.73257446289063)"/>
<path d="M0 0 C9.9011392 -0.16253731 19.80195857 -0.28674404 29.7041626 -0.3626852 C34.30276779 -0.39914282 38.90045706 -0.44855369 43.49853516 -0.52807617 C47.94010349 -0.60440689 52.38079368 -0.64604645 56.82296753 -0.6641407 C58.51347674 -0.67702673 60.20394047 -0.70219144 61.89407349 -0.7401104 C76.79481476 -1.06097254 76.79481476 -1.06097254 81.85546875 3.31420898 C82.93795979 4.51268257 83.99229374 5.73799608 85 7 C85.73089844 7.66837891 86.46179688 8.33675781 87.21484375 9.02539062 C87.78332031 9.56357422 88.35179687 10.10175781 88.9375 10.65625 C89.59621094 11.27822266 90.25492187 11.90019531 90.93359375 12.54101562 C91.95646484 13.51071289 91.95646484 13.51071289 93 14.5 C94.49985379 15.91682146 95.99985729 17.33348445 97.5 18.75 C98.62728516 19.81541016 98.62728516 19.81541016 99.77734375 20.90234375 C103.17659842 24.11042768 106.58801973 27.30546234 110 30.5 C114.15002424 34.38607239 118.2957417 38.2765071 122.4296875 42.1796875 C129.20077859 48.57098746 135.98259004 54.9298141 142.9375 61.12109375 C145.48017682 63.43743381 147.88418252 65.87030304 150.29296875 68.32421875 C152.11259568 70.11053443 154.00453917 71.77477835 155.9375 73.4375 C159.46634763 76.47679651 162.73005027 79.71016847 165.99609375 83.02734375 C168.58246151 85.57337829 171.3153528 87.92021557 174.06640625 90.28515625 C176.56431556 92.5004738 178.88024989 94.8689817 181.21875 97.25 C183.08389674 99.08242487 185.01927746 100.79353135 187 102.5 C190.22956367 105.28239332 193.23322653 108.21019429 196.21875 111.25 C198.08389674 113.08242487 200.01927746 114.79353135 202 116.5 C205.21973543 119.27392591 208.21539732 122.19166332 211.19140625 125.22265625 C214.3244241 128.30153988 217.66174265 131.14730735 221 134 C220.30095158 130.02231602 218.36424055 126.74071516 216.4375 123.25 C213.54372685 117.92201073 210.74755438 112.56114021 208.0625 107.125 C205.2953815 101.53483405 202.43715596 96.00269483 199.5 90.5 C196.2367071 84.38559031 193.08955162 78.22530699 190.01733398 72.01293945 C187.62117187 67.18811487 185.1110985 62.43324192 182.5625 57.6875 C178.96481072 50.97335575 175.6713846 44.15034392 172.4543457 37.24707031 C168.59802485 29.02942423 164.33933938 21.03790174 160.07324219 13.02783203 C154 1.55277525 154 1.55277525 154 0 C163.9795505 -0.20933464 173.95857151 -0.36884744 183.93987751 -0.46630955 C188.57570227 -0.51310873 193.21001568 -0.57648943 197.8449707 -0.67895508 C202.32551403 -0.77737733 206.80461221 -0.83068726 211.28615379 -0.85389519 C212.98822959 -0.87041386 214.69023395 -0.90267217 216.39168739 -0.95157051 C225.05406228 -1.19042014 231.38865635 -1.33600964 238.40576172 4.3737793 C239.96267191 5.89010597 241.49769405 7.42955651 243 9 C244.19666406 9.98857384 245.4071749 10.96129697 246.64453125 11.8984375 C247.16861572 12.30900391 247.6927002 12.71957031 248.23266602 13.14257812 C248.75401123 13.54927734 249.27535645 13.95597656 249.8125 14.375 C250.39378662 14.83068359 250.97507324 15.28636719 251.57397461 15.75585938 C254.56001235 18.0962131 257.55152988 20.42938676 260.546875 22.7578125 C266.87453976 27.68781088 273.07687075 32.72088771 279.16943359 37.9387207 C283.97032946 42.02715485 288.94410149 45.86180566 293.9609375 49.6796875 C300.39785283 54.59424753 306.66198809 59.72326602 312.94165039 64.8359375 C313.99147095 65.69058594 313.99147095 65.69058594 315.0625 66.5625 C316.10748657 67.41328125 316.10748657 67.41328125 317.17358398 68.28125 C321.39256292 71.7105162 325.64175678 75.09235598 329.94921875 78.41015625 C332.21481902 80.16653589 334.45218319 81.95524644 336.6875 83.75 C342.46626237 88.38551417 348.29463224 92.95680097 354.12402344 97.52832031 C357.37591449 100.07938737 360.6253068 102.63363424 363.875 105.1875 C365.05988503 106.11850333 366.24477983 107.04949423 367.4296875 107.98046875 C368.70199219 108.98013672 368.70199219 108.98013672 370 110 C369.49210937 109.11699219 368.98421875 108.23398437 368.4609375 107.32421875 C367.76556424 106.11201402 367.07025529 104.8997724 366.375 103.6875 C366.04371094 103.11193359 365.71242188 102.53636719 365.37109375 101.94335938 C362.72389362 97.32324594 360.16827052 92.65649861 357.62451172 87.97875977 C340.77175272 57.06793019 340.77175272 57.06793019 322.734375 26.84375 C320.51190527 23.19970054 318.46482808 19.47849704 316.453125 15.71484375 C315.41810378 13.78113475 314.36389799 11.85764249 313.296875 9.94140625 C312.74515625 8.95011719 312.1934375 7.95882812 311.625 6.9375 C310.87089844 5.58978516 310.87089844 5.58978516 310.1015625 4.21484375 C309 2 309 2 309 0 C318.84104947 -0.28046872 328.68111919 -0.49245866 338.52538013 -0.62174606 C343.09886059 -0.68386321 347.66956967 -0.76781037 352.24145508 -0.90527344 C390.32402076 -2.02043576 390.32402076 -2.02043576 404.21638489 10.47894287 C407.24645366 13.06296881 410.65331021 15.02380743 414.0625 17.0625 C415.37770563 17.88056031 416.69168112 18.70060476 418.00390625 19.5234375 C422.89837738 22.5648727 427.8226618 25.55715743 432.74438477 28.55419922 C439.02484744 32.38663742 445.26550895 36.28081559 451.5 40.1875 C459.97572119 45.49838256 468.47613573 50.76674083 477 56 C486.63603762 61.91648522 496.23919427 67.8831527 505.82226562 73.88500977 C512.86012622 78.29201133 519.91518802 82.66885518 527 87 C526.27136636 91.15868759 525.07983794 95.05900076 523.76953125 99.0703125 C523.54273682 99.76728241 523.31594238 100.46425232 523.08227539 101.18234253 C522.58832092 102.69896309 522.09303978 104.21515206 521.59658813 105.73095703 C520.79774005 108.17006631 520.00236651 110.61028592 519.20776367 113.05078125 C517.1779896 119.28159057 515.14116256 125.5100897 513.10449219 131.73864746 C511.00536606 138.15851295 508.90784817 144.5789004 506.8125 151 C506.51432373 151.91330078 506.21614746 152.82660156 505.90893555 153.76757812 C501.91806984 165.9991535 498.03047846 178.25481073 494.26098633 190.55664062 C491.26114606 200.29066019 488.04287593 209.9442677 484.79418945 219.59719849 C481.10061617 230.58018693 477.59922572 241.60766366 474.20092773 252.6862793 C471.92091598 260.0974649 469.54425099 267.4665419 467.0625 274.8125 C463.98693945 283.91686258 461.08922868 293.06978558 458.25 302.25 C454.68861958 313.75968756 450.96572655 325.20560974 447.125 336.625 C442.97731849 348.96171079 438.95726193 361.33109845 435.0625 373.75 C430.86649534 387.1291094 426.59630435 400.48141826 422.25 413.8125 C421.97346588 414.66086426 421.69693176 415.50922852 421.41201782 416.38330078 C421.13852509 417.22231934 420.86503235 418.06133789 420.58325195 418.92578125 C420.04507175 420.57681872 419.5069042 422.22786031 418.96875 423.87890625 C418.70954269 424.67402618 418.45033539 425.46914612 418.18327332 426.2883606 C415.06928555 435.84680968 412.01286416 445.42350192 408.95800781 455.00097656 C406.44126911 462.87957448 403.90609524 470.75226359 401.37109375 478.625 C399.9152161 483.14759175 398.46527082 487.67200292 397.02203369 492.19863892 C396.12967378 494.99577413 395.23442757 497.79198135 394.33880615 500.58807373 C393.91144748 501.92461586 393.48533889 503.2615585 393.06060791 504.59893799 C392.46434747 506.47588649 391.86309517 508.3512469 391.26171875 510.2265625 C390.92100342 511.29471191 390.58028809 512.36286133 390.22924805 513.46337891 C388.64114874 518.03243681 386.79648506 522.50878736 385 527 C359.59 527 334.18 527 308 527 C311.46587212 502.73889515 311.46587212 502.73889515 313.05078125 492.52734375 C313.23207077 491.35506729 313.41336029 490.18279083 313.60014343 488.97499084 C313.98010476 486.5209073 314.36070513 484.06692261 314.74194336 481.61303711 C315.30367582 477.99434554 315.86191751 474.37512744 316.41992188 470.75585938 C318.5029038 457.2984008 320.67516047 443.8592294 322.9296875 430.4296875 C325.75159355 413.62004996 328.42926257 396.78986871 331.06625366 379.9503479 C332.36445139 371.66138718 333.66960334 363.37352079 334.9765625 355.0859375 C335.10662123 354.26113451 335.23667995 353.43633152 335.37067986 352.5865345 C337.75327058 337.48582904 340.20135605 322.39652632 342.6875 307.3125 C346.64389589 283.29644799 350.45538737 259.25903499 354.23472595 235.21455383 C356.34611522 221.78694686 358.47438464 208.36202677 360.60525513 194.9375 C361.22485792 191.03392903 361.84373262 187.13024276 362.46264648 183.2265625 C365.27837345 165.47948617 368.13081565 147.73849828 371 130 C370.43309448 131.716427 370.43309448 131.716427 369.85473633 133.4675293 C363.79850592 151.78590175 357.40751806 169.97049006 350.71975708 188.06716919 C347.45586255 196.90808734 344.34431367 205.78330926 341.41503906 214.74072266 C339.62047047 220.20697429 337.70480985 225.61219344 335.6875 231 C332.69469121 238.99531851 329.89156251 247.04877168 327.125 255.125 C323.98908966 264.27737918 320.80080604 273.40576327 317.5 282.5 C314.22213765 291.53244468 311.05289562 300.5977634 307.9375 309.6875 C304.73316003 319.03594137 301.4463727 328.3453207 298.03662109 337.62060547 C294.82782735 346.38831797 291.80823754 355.21899139 288.78125 364.05078125 C286.0877637 371.89236827 283.32829055 379.70608493 280.5 387.5 C276.80455378 397.68512977 273.25637839 407.91633861 269.74365234 418.16577148 C266.59867927 427.32030587 263.35764764 436.43682416 260.04296875 445.53125 C257.92504171 451.35754739 255.91082725 457.20903575 253.96484375 463.0949707 C252.49676821 467.51517081 250.97056845 471.91449217 249.4375 476.3125 C249.10596924 477.26382812 248.77443848 478.21515625 248.43286133 479.1953125 C245.61025439 487.2786117 242.77194246 495.35641442 239.91897583 503.42904663 C239.43553031 504.79777694 238.95283047 506.16677088 238.47091675 507.53604126 C237.78893162 509.47277698 237.10383848 511.40838707 236.41796875 513.34375 C235.82665161 515.01727539 235.82665161 515.01727539 235.22338867 516.72460938 C233.92765684 520.19368507 232.45874689 523.59625726 231 527 C205.59 527 180.18 527 154 527 C154.64811895 520.51881045 155.37990307 514.31223055 156.6015625 507.953125 C156.75871231 507.11588394 156.91586212 506.27864288 157.07777405 505.41603088 C157.58963405 502.69327242 158.10727548 499.97164884 158.625 497.25 C159.16942602 494.36397001 159.71247249 491.47768246 160.25547791 488.59138489 C160.62530411 486.62627317 160.99563789 484.66125692 161.36647034 482.69633484 C162.56816094 476.32334664 163.74865803 469.94683679 164.91015625 463.56640625 C165.05975296 462.74522812 165.20934967 461.92404999 165.36347961 461.07798767 C165.51093124 460.26858231 165.65838287 459.45917694 165.81030273 458.62524414 C167.9299434 446.990661 170.07149732 435.37456931 172.5625 423.8125 C174.52904793 414.66567324 176.14576678 405.47601222 177.6875 396.25 C180.14353856 381.58316328 182.86349592 366.97526727 185.6875 352.375 C186.00192047 350.74890808 186.00192047 350.74890808 186.32269287 349.08996582 C187.64515909 342.25661568 188.97279464 335.42427597 190.30163574 328.59216309 C192.24123038 318.61550664 194.17379086 308.63748951 196.10391235 298.65899658 C196.78640166 295.1347663 197.47153819 291.61105889 198.15698242 288.08740234 C200.59954653 275.49561234 202.9365336 262.88969082 205.17330933 250.25970459 C207.01076522 239.89236185 208.93097944 229.54185482 210.8821106 219.19537354 C211.45711957 216.14595235 212.03037712 213.09620584 212.60327148 210.04638672 C214.21864596 201.44962518 215.83806875 192.85363254 217.46232605 184.25854492 C218.03271941 181.23905336 218.60191469 178.21933667 219.17092896 175.19958496 C219.55384257 173.170868 219.93884723 171.14255548 220.32397461 169.11425781 C220.54835205 167.92413086 220.77272949 166.73400391 221.00390625 165.5078125 C221.29503296 163.97084717 221.29503296 163.97084717 221.59204102 162.40283203 C222.05579571 160.07757261 222.05579571 160.07757261 222 158 C221.55515259 159.13876587 221.55515259 159.13876587 221.10131836 160.30053711 C219.7149533 163.84680903 218.32691518 167.39242223 216.9375 170.9375 C216.56076645 171.89879822 216.56076645 171.89879822 216.17642212 172.8795166 C213.53865148 179.60511967 210.89980418 186.32906986 208.12402344 192.99926758 C207.8149707 193.74200928 207.50591797 194.48475098 207.1875 195.25 C206.68250977 196.46324951 206.17751953 197.67649902 205.65722656 198.92651367 C204.10538687 202.70279059 202.66622973 206.51431296 201.25 210.34375 C198.19408401 218.55241776 194.99555208 226.70134573 191.76681519 234.84332275 C190.78139786 237.32843615 189.79781137 239.81426757 188.81469727 242.30029297 C187.48852365 245.65380633 186.16191806 249.00714815 184.83496094 252.36035156 C182.36161837 258.61227873 179.89687034 264.86756196 177.4375 271.125 C177.00880615 272.21538574 176.5801123 273.30577148 176.13842773 274.42919922 C173.58596766 280.9312554 171.05100494 287.43984829 168.52734375 293.953125 C167.31008691 297.0938241 166.0926438 300.2344509 164.875 303.375 C164.57544403 304.14777283 164.27588806 304.92054565 163.96725464 305.71673584 C160.08620267 315.72187522 156.15885449 325.70289053 152.01513672 335.60302734 C149.66218286 341.25325227 147.49897596 346.9670896 145.36320496 352.70202637 C142.60655104 360.08860279 139.71512179 367.41983227 136.8125 374.75 C135.9586755 376.91031918 135.10529166 379.07081207 134.25195312 381.23132324 C133.67626301 382.68882312 133.10041727 384.14626153 132.52441406 385.6036377 C130.66051087 390.32114367 128.80528132 395.04196591 126.95703125 399.765625 C119.05537892 419.9517307 119.05537892 419.9517307 115.1875 429.1875 C112.99503222 434.42291264 111.02274743 439.69187962 109.1875 445.0625 C106.41433888 453.17072219 103.14255799 461.04493312 99.77807617 468.92407227 C96.25545467 477.21521534 93.1747817 485.53391546 90 494 C83.565 510.335 83.565 510.335 77 527 C51.26 527 25.52 527 -1 527 C3.51097973 504.44510135 3.51097973 504.44510135 5.5 496.5 C7.08425058 490.00246829 8.54276276 483.50357853 9.8125 476.9375 C11.51879396 468.17469777 13.42444643 459.46103124 15.375 450.75 C19.12708187 433.98400332 22.81021464 417.20322592 26.47734451 400.41848373 C27.24432796 396.90824708 28.01171297 393.39809823 28.77905273 389.88793945 C29.97265335 384.42760654 31.1660738 378.96723429 32.359375 373.50683594 C34.54998028 363.48326295 36.74060119 353.45969584 38.9375 343.4375 C39.11739471 342.61664917 39.29728943 341.79579834 39.4826355 340.95007324 C41.77922148 330.47758894 44.1210323 320.0166128 46.5 309.5625 C49.30228677 297.23532553 51.97129922 284.88265068 54.60427856 272.51834106 C57.23923396 260.14883092 59.91243296 247.78801188 62.6171875 235.43359375 C62.77431402 234.71585344 62.93144054 233.99811314 63.09332848 233.25862312 C64.67474564 226.03627814 66.25842089 218.81443021 67.84433746 211.59307194 C68.44145127 208.87346388 69.03789094 206.1537082 69.63423538 203.43393135 C70.04502626 201.56183119 70.45686717 199.68996154 70.8687439 197.81809998 C71.58607961 194.54684512 72.29601497 191.27415175 73 188 C73.20914536 187.03371674 73.41829071 186.06743347 73.6337738 185.0718689 C73.81956497 184.18625275 74.00535614 183.3006366 74.19677734 182.38818359 C74.35826263 181.62492767 74.51974792 180.86167175 74.68612671 180.07528687 C75.55271039 174.34555523 73.60841503 169.52122424 71.3125 164.375 C70.83425781 163.28960937 70.35601562 162.20421875 69.86328125 161.0859375 C68.81654088 158.77315409 67.75313412 156.4688768 66.68310547 154.16674805 C62.82142762 145.85441976 59.12814727 137.47829443 55.5 129.0625 C54.95196365 127.79486102 54.4037868 126.52728278 53.85546875 125.25976562 C51.68266534 120.23369009 49.51270962 115.20649763 47.36547852 110.16943359 C46.9671582 109.23604408 46.9671582 109.23604408 46.56079102 108.28379822 C45.83379323 106.57890317 45.10836842 104.87333762 44.38305664 103.16772461 C42.96233238 99.91372685 41.4645249 96.70533086 39.9375 93.5 C36.45632964 86.13574478 33.22565668 78.66648584 30 71.1875 C25.11097998 59.85330571 20.17357958 48.54185192 15.1875 37.25 C14.54809082 35.80029512 13.90868646 34.35058812 13.26928711 32.90087891 C10.62501338 26.90996575 7.97346502 20.92308903 5.2734375 14.95703125 C4.89034424 14.10786133 4.50725098 13.25869141 4.11254883 12.38378906 C3.44034175 10.89777537 2.76352193 9.41383433 2.08081055 7.93261719 C0.79410066 5.087579 0 3.16469104 0 0 Z " fill="#040038" transform="translate(194,193)"/>
<path d="M0 0 C1.79054327 -0.00374286 3.58108491 -0.00834689 5.37162399 -0.01373065 C10.26141313 -0.02589774 15.15113353 -0.02570764 20.04093432 -0.02334189 C25.32678438 -0.02293212 30.61261287 -0.03398819 35.89845276 -0.04345703 C46.24365988 -0.06003396 56.5888442 -0.0655651 66.93406349 -0.06668179 C75.34890857 -0.06763393 83.76374616 -0.07175251 92.17858887 -0.07808304 C116.06723267 -0.09568721 139.95585855 -0.10492332 163.84450889 -0.10342209 C165.77422235 -0.10330222 165.77422235 -0.10330222 167.74291992 -0.10317993 C169.675006 -0.10305729 169.675006 -0.10305729 171.64612412 -0.10293217 C192.5083225 -0.10211973 213.3704486 -0.12124898 234.23262608 -0.14945666 C255.68416958 -0.17823095 277.13567789 -0.19199443 298.58724117 -0.19026911 C310.61836234 -0.18960673 322.64940776 -0.19503213 334.68051147 -0.21662521 C344.92628209 -0.23489698 355.17194261 -0.23913537 365.41772252 -0.22560637 C370.63757838 -0.21910662 375.8572234 -0.21885039 381.07705879 -0.23631287 C421.15476012 -0.36213074 421.15476012 -0.36213074 438.0637207 4.26742554 C439.16541092 4.55347467 440.26710114 4.83952381 441.4021759 5.1342411 C443.85318388 5.79667254 446.23058944 6.5534383 448.6262207 7.39242554 C449.47571289 7.68391479 450.32520508 7.97540405 451.20043945 8.27572632 C465.94056166 13.5342323 479.60609628 20.81500644 492.0637207 30.26742554 C492.84875977 30.83074585 493.63379883 31.39406616 494.44262695 31.97445679 C525.73929169 55.43371648 545.8143447 90.13799062 553.0637207 128.26742554 C553.23276592 129.14175543 553.40181114 130.01608532 553.57597893 130.91691005 C555.20933589 140.30137903 555.34760629 149.50396125 555.32441711 158.98937988 C555.32744278 160.75659943 555.33133433 162.52381767 555.33600968 164.29103363 C555.34624519 169.11627841 555.34411924 173.94144853 555.33982909 178.76669931 C555.3373537 183.98297828 555.34638619 189.19923964 555.35386658 194.41551208 C555.36659383 204.62369145 555.36840967 214.83184448 555.36606631 225.04003043 C555.3642805 233.34238283 555.36603845 241.64472726 555.37029076 249.9470787 C555.37088595 251.13046157 555.37148113 252.31384444 555.37209436 253.5330874 C555.37330617 255.93747156 555.3745203 258.34185572 555.37573674 260.74623989 C555.38660504 283.27864151 555.38445336 305.81102816 555.37835189 328.34343062 C555.37318547 348.92890734 555.3844322 369.5143367 555.40345011 390.09980406 C555.4228522 411.26431409 555.43108022 432.42880175 555.42732686 453.59332073 C555.42541814 465.46451366 555.42787002 477.33566631 555.4420414 489.20685196 C555.45398654 499.3150598 555.45532517 509.42320257 555.44325123 519.53141136 C555.43738402 524.68212557 555.43620295 529.83272093 555.44825363 534.98342705 C555.45918557 539.71119196 555.45592319 544.43873987 555.44199195 549.16649495 C555.43936494 550.86427967 555.44164766 552.5620818 555.44972781 554.25984932 C555.51714874 569.50070506 554.01349853 584.73661665 549.3762207 599.32992554 C549.12275879 600.14735229 548.86929688 600.96477905 548.6081543 601.80697632 C540.59557295 626.75797197 527.10569781 647.47906136 509.0637207 666.26742554 C508.53093506 666.82357544 507.99814941 667.37972534 507.44921875 667.95272827 C488.81248962 687.04728471 463.63203067 700.55994144 437.8762207 707.14242554 C437.13001465 707.33360962 436.38380859 707.5247937 435.61499023 707.72177124 C421.86320828 710.96328372 408.10823055 711.56283341 394.05693054 711.52812195 C392.29537143 711.53114986 390.53381363 711.53504252 388.7722581 711.53971452 C383.97659428 711.54992083 379.18100583 711.54783167 374.38533604 711.54353392 C369.19569493 711.54105321 364.00607134 711.55009745 358.81643677 711.55757141 C348.66682195 711.57028308 338.51723364 711.57211653 328.36761221 711.56977115 C320.11300509 711.56798392 311.85840598 711.56974628 303.60379982 711.57399559 C301.83766131 711.57488837 301.83766131 711.57488837 300.03584323 711.57579919 C297.64345766 711.57701102 295.2510721 711.57822515 292.85868654 711.57944157 C270.45217139 711.59030343 248.0456713 711.58816099 225.63915531 711.58205672 C205.17026669 711.57688837 184.70142567 711.5881433 164.23254647 711.60715494 C143.18094268 711.62655693 122.12936138 711.63478523 101.0777486 711.63103169 C89.272552 711.62912329 77.46739592 711.63157204 65.66220665 711.64574623 C55.61262789 711.6576911 45.56311458 711.65903015 35.51353487 711.64695606 C30.39317856 711.64108926 25.27294178 711.63990674 20.15259361 711.65195847 C15.4527043 711.66289139 10.75303327 711.65962692 6.05315385 711.64569678 C4.36555295 711.64307009 2.67793452 711.64535146 0.99035092 711.65343264 C-38.17792949 711.82776838 -72.95067623 698.20363949 -102.9362793 673.26742554 C-103.50411133 672.81850952 -104.07194336 672.36959351 -104.65698242 671.90707397 C-106.11964862 670.73779638 -107.53275192 669.50706798 -108.9362793 668.26742554 C-108.9362793 667.60742554 -108.9362793 666.94742554 -108.9362793 666.26742554 C-109.5962793 666.26742554 -110.2562793 666.26742554 -110.9362793 666.26742554 C-110.9362793 665.60742554 -110.9362793 664.94742554 -110.9362793 664.26742554 C-111.5962793 664.26742554 -112.2562793 664.26742554 -112.9362793 664.26742554 C-115.69830672 661.29705553 -118.14998208 658.07180353 -120.65551758 654.88363647 C-121.88496267 653.3321827 -123.14251093 651.80312533 -124.40112305 650.27523804 C-146.21876088 623.18414272 -156.45639294 589.26891269 -156.32395935 554.80543518 C-156.32814295 553.00660077 -156.33362604 551.20776901 -156.34027916 549.40894204 C-156.35461798 544.51482343 -156.3505256 539.62087486 -156.34311235 534.72674739 C-156.33835407 529.42939328 -156.35091391 524.13207457 -156.36112976 518.83473206 C-156.37827134 508.47569012 -156.37916742 498.11670897 -156.37391686 487.75765654 C-156.3698652 479.33240741 -156.37133051 470.90717616 -156.37666512 462.48192787 C-156.37741354 461.27994816 -156.37816196 460.07796844 -156.37893306 458.8395651 C-156.38046464 456.3972538 -156.38200298 453.95494251 -156.38354803 451.51263122 C-156.39725632 428.64110372 -156.39184717 405.76961049 -156.38036282 382.89808378 C-156.37043256 362.00636174 -156.38337055 341.1147283 -156.40729701 320.22301992 C-156.4317207 298.73406014 -156.44128782 277.24514156 -156.43464428 255.75616819 C-156.43115929 243.70669911 -156.43333649 231.65729812 -156.45089531 219.60783958 C-156.46565823 209.35042023 -156.46619942 199.09311694 -156.4488244 188.83569976 C-156.44034561 183.60986861 -156.43808802 178.38424442 -156.45347595 173.15842438 C-156.46742667 168.3610085 -156.46242817 163.56397485 -156.44323672 158.7665805 C-156.43950796 157.04467258 -156.44230676 155.32273327 -156.45284837 153.60085358 C-156.54428503 137.50196306 -154.0352463 121.81017816 -148.6862793 106.57992554 C-148.24022339 105.28514282 -148.24022339 105.28514282 -147.78515625 103.96420288 C-141.05951255 84.95048455 -131.38302808 68.89931751 -118.08862305 53.77914429 C-115.94032623 51.47752886 -115.94032623 51.47752886 -114.9362793 49.26742554 C-114.2762793 49.26742554 -113.6162793 49.26742554 -112.9362793 49.26742554 C-112.9362793 48.60742554 -112.9362793 47.94742554 -112.9362793 47.26742554 C-112.2762793 47.26742554 -111.6162793 47.26742554 -110.9362793 47.26742554 C-110.2762793 45.94742554 -109.6162793 44.62742554 -108.9362793 43.26742554 C-108.2762793 43.26742554 -107.6162793 43.26742554 -106.9362793 43.26742554 C-106.9362793 42.60742554 -106.9362793 41.94742554 -106.9362793 41.26742554 C-77.88808474 13.76056376 -39.60416183 -0.07909166 0 0 Z M-57.7487793 13.57992554 C-58.43963623 13.88696411 -59.13049316 14.19400269 -59.84228516 14.51034546 C-61.87728222 15.42151357 -63.90752209 16.34246025 -65.9362793 17.26742554 C-66.98299805 17.74180054 -68.0297168 18.21617554 -69.1081543 18.70492554 C-80.99251678 24.35802769 -93.41563996 32.12761178 -102.9362793 41.26742554 C-102.9362793 41.92742554 -102.9362793 42.58742554 -102.9362793 43.26742554 C-103.7200293 43.51492554 -104.5037793 43.76242554 -105.3112793 44.01742554 C-108.31932937 45.44983033 -108.69118287 46.29834944 -109.9362793 49.26742554 C-110.9262793 49.76242554 -110.9262793 49.76242554 -111.9362793 50.26742554 C-111.9362793 50.92742554 -111.9362793 51.58742554 -111.9362793 52.26742554 C-112.5962793 52.26742554 -113.2562793 52.26742554 -113.9362793 52.26742554 C-115.71652101 54.26981707 -117.36642958 56.27362503 -118.9987793 58.39242554 C-119.48902588 59.02551636 -119.97927246 59.65860718 -120.484375 60.31088257 C-132.14609128 75.57637344 -141.04208129 91.95731233 -146.9362793 110.26742554 C-147.24436523 111.2071521 -147.55245117 112.14687866 -147.86987305 113.11508179 C-149.3594459 117.84037748 -150.30973911 122.35952739 -150.9362793 127.26742554 C-151.4312793 127.76242554 -151.4312793 127.76242554 -151.9362793 128.26742554 C-152.75735247 133.56397978 -153.06204358 138.67248482 -153.06491375 144.04028606 C-153.06666679 144.78344136 -153.06841982 145.52659666 -153.07022598 146.29227182 C-153.07486269 148.7722645 -153.07242652 151.25219794 -153.06999207 153.73219299 C-153.07186121 155.53237067 -153.07416233 157.33254795 -153.07685739 159.13272458 C-153.08296899 164.0720442 -153.08284254 169.01134687 -153.08166301 173.95066941 C-153.08145884 179.28075491 -153.08697933 184.61083499 -153.09172058 189.94091797 C-153.10002431 200.38104551 -153.1027753 210.8211674 -153.10333296 221.26129796 C-153.10380827 229.74879269 -153.10586379 238.23628555 -153.10903358 246.72377968 C-153.11783958 270.79316173 -153.12245307 294.86253932 -153.12170311 318.93192299 C-153.12166315 320.22930143 -153.1216232 321.52667987 -153.12158203 322.8633728 C-153.12154115 324.16233741 -153.12150027 325.46130202 -153.12145815 326.79962919 C-153.12105175 347.84858933 -153.13061998 368.89753159 -153.1447204 389.94648656 C-153.15908799 411.56507111 -153.16599036 433.18364693 -153.16512662 454.80223638 C-153.16479477 466.93711147 -153.16753651 479.07196781 -153.17830467 491.20683861 C-153.18741473 501.53930472 -153.18958077 511.87174358 -153.18279525 522.20421197 C-153.17953255 527.47361552 -153.17946437 532.74296678 -153.1881485 538.01236534 C-153.19602544 542.84174537 -153.19456985 547.67103175 -153.18586437 552.50040952 C-153.18433201 554.24197874 -153.18613552 555.98355499 -153.19172444 557.72511592 C-153.22083263 567.4437867 -152.77476843 576.68308836 -150.9362793 586.26742554 C-150.75991587 587.24287565 -150.58355245 588.21832576 -150.40184468 589.22333497 C-149.62360681 593.47603006 -148.64456758 597.28141954 -146.9362793 601.26742554 C-146.56756842 602.92662449 -146.22346256 604.59218983 -145.9362793 606.26742554 C-145.2762793 606.26742554 -144.6162793 606.26742554 -143.9362793 606.26742554 C-143.86280273 607.22455444 -143.86280273 607.22455444 -143.7878418 608.20101929 C-143.67569336 609.44045288 -143.67569336 609.44045288 -143.5612793 610.70492554 C-143.49166992 611.52863647 -143.42206055 612.35234741 -143.3503418 613.20101929 C-143.14538086 614.22389038 -143.14538086 614.22389038 -142.9362793 615.26742554 C-142.2762793 615.59742554 -141.6162793 615.92742554 -140.9362793 616.26742554 C-140.21495717 617.88181316 -139.50181207 619.50027754 -138.8269043 621.13461304 C-133.64739233 633.53818118 -125.72324227 644.00661071 -117.3112793 654.40023804 C-115.9362793 656.26742554 -115.9362793 656.26742554 -114.95581055 658.35726929 C-113.77986411 660.56047928 -112.70974886 661.36823994 -110.6237793 662.70492554 C-107.29081382 664.85450102 -104.73030729 667.45696209 -101.9362793 670.26742554 C-99.91287458 672.0860711 -97.83758235 673.8371047 -95.7487793 675.57992554 C-95.21575195 676.03432007 -94.68272461 676.4887146 -94.13354492 676.95687866 C-91.40525028 679.48867354 -91.40525028 679.48867354 -87.9362793 680.26742554 C-87.9362793 680.92742554 -87.9362793 681.58742554 -87.9362793 682.26742554 C-86.6162793 682.59742554 -85.2962793 682.92742554 -83.9362793 683.26742554 C-83.9362793 683.92742554 -83.9362793 684.58742554 -83.9362793 685.26742554 C-83.31881836 685.57035522 -82.70135742 685.87328491 -82.06518555 686.18539429 C-77.85895531 688.26610179 -73.7228994 690.37282039 -69.6862793 692.76742554 C-63.76754321 696.10458525 -57.35609796 698.11252137 -50.9362793 700.26742554 C-50.11901367 700.55617554 -49.30174805 700.84492554 -48.4597168 701.14242554 C-42.39642312 703.25906624 -36.21470126 704.92154608 -29.9362793 706.26742554 C-29.16700173 706.43297623 -28.39772416 706.59852691 -27.60513514 706.76909429 C-18.36930692 708.54117587 -9.26745904 708.54455391 0.09025574 708.5146637 C1.90243841 708.51625415 3.71462049 708.51872009 5.52680093 708.52198011 C10.4802751 708.52836368 15.43366691 708.52234883 20.38713562 708.51421583 C25.73873466 708.50761577 31.09032483 708.51259217 36.44192505 708.51609802 C46.91224678 708.52113016 57.38253684 708.51551166 67.85285463 708.50624772 C80.04057414 708.49585225 92.22828684 708.49593418 104.41600994 708.4964203 C126.1508818 708.49692049 147.88573892 708.48776902 169.62060547 708.47323608 C190.72737903 708.45913038 211.83413963 708.45206616 232.94091797 708.45272827 C234.24251695 708.45276823 235.54411593 708.45280818 236.88515731 708.45284935 C238.1844777 708.45288971 239.48379809 708.45293006 240.82249182 708.45297164 C264.84225285 708.45366052 288.86200836 708.44777945 312.8817676 708.43881842 C321.38589708 708.43579702 329.89002555 708.43473829 338.3941555 708.43428612 C348.74296691 708.4336057 359.09176901 708.42916459 369.44057646 708.41995331 C374.7247073 708.41532116 380.0088262 708.41229503 385.29295921 708.41354752 C390.12153034 708.41463659 394.95007496 708.41116106 399.77864055 708.40389899 C401.53333422 708.4020747 403.2880306 708.4019659 405.04272439 708.40366628 C407.411649 708.4057092 409.78048484 708.40170715 412.14940166 708.39605999 C412.84444344 708.39811531 413.53948521 708.40017063 414.25558886 708.40228823 C417.43685226 708.65330646 417.43685226 708.65330646 420.0637207 707.26742554 C422.12154848 706.96312011 424.18553015 706.70024062 426.2512207 706.45492554 C443.49963223 704.05060151 459.75563106 697.42923255 475.0637207 689.26742554 C475.0637207 688.60742554 475.0637207 687.94742554 475.0637207 687.26742554 C475.78946289 687.16301147 476.51520508 687.05859741 477.26293945 686.95101929 C480.32356262 686.20400527 482.27843549 685.09193906 484.8762207 683.32992554 C485.66641602 682.8052771 486.45661133 682.28062866 487.27075195 681.74008179 C487.86243164 681.25410522 488.45411133 680.76812866 489.0637207 680.26742554 C489.0637207 679.60742554 489.0637207 678.94742554 489.0637207 678.26742554 C490.0537207 678.26742554 491.0437207 678.26742554 492.0637207 678.26742554 C493.21393563 677.1869206 494.35113206 676.09019966 495.4309082 674.93930054 C497.44668222 672.87530227 499.58971233 670.99072604 501.7512207 669.07992554 C509.58582868 662.05096279 517.10114198 654.98078156 523.0637207 646.26742554 C523.77012695 645.2580896 524.4765332 644.24875366 525.2043457 643.20883179 C529.47859146 637.71022139 529.47859146 637.71022139 531.0637207 631.26742554 C531.7237207 631.26742554 532.3837207 631.26742554 533.0637207 631.26742554 C539.70079714 617.53366088 539.70079714 617.53366088 545.0637207 603.26742554 C545.40016602 602.2787146 545.73661133 601.29000366 546.08325195 600.27133179 C550.93782888 585.41669002 552.51046798 571.40020474 552.44467163 555.90550232 C552.4481364 554.10539338 552.45290642 552.30528657 552.45885336 550.50518411 C552.47128069 545.60300911 552.46523098 540.70101119 552.45589471 535.79883587 C552.44907033 530.49470885 552.45960219 525.19061098 552.46783447 519.88648987 C552.48113829 509.51293952 552.47830896 499.13945448 552.46959655 488.76590163 C552.46280682 480.33059218 552.46190885 471.89530096 552.465168 463.45998955 C552.4656277 462.25700818 552.4660874 461.0540268 552.46656103 459.81459145 C552.46752026 457.37034142 552.4684929 454.9260914 552.4694788 452.48184138 C552.47802297 429.58942359 552.46821403 406.6970419 552.4520777 383.80463003 C552.43867713 364.18649757 552.44100237 344.56841837 552.45483398 324.95028687 C552.47090994 302.13837334 552.47719729 279.32649143 552.46799719 256.51457304 C552.4670416 254.07927446 552.46609849 251.64397588 552.465168 249.20867729 C552.46447376 247.41161704 552.46447376 247.41161704 552.46376549 245.57825254 C552.46118153 237.15923217 552.46553382 228.74023193 552.47260666 220.32121468 C552.48104435 210.05235387 552.47869401 199.78356181 552.46276443 189.51470882 C552.45491194 184.28118949 552.45173824 179.04778454 552.46171188 173.8142662 C552.47072237 169.01332156 552.46562246 164.21259615 552.44977923 159.41167109 C552.44645809 157.68507718 552.44806448 155.95846432 552.45540659 154.23188282 C552.51344126 139.43676911 550.72393577 125.32613856 546.3137207 111.14242554 C546.05768066 110.30824097 545.80164063 109.4740564 545.5378418 108.61459351 C540.36616037 92.33268145 532.00201148 77.0127092 521.63012695 63.47445679 C520.0637207 61.26742554 520.0637207 61.26742554 519.0637207 58.26742554 C517.6192788 57.01995299 516.16941941 55.77739778 514.67700195 54.58773804 C512.30296041 52.64481784 510.2037569 50.46233446 508.0637207 48.26742554 C507.2799707 47.48367554 506.4962207 46.69992554 505.6887207 45.89242554 C504.3049192 44.50862404 502.92523549 43.11988033 501.5859375 41.69296265 C497.21549577 37.12158107 492.55654154 33.62211185 487.2512207 30.20492554 C486.05710571 29.42459961 486.05710571 29.42459961 484.83886719 28.62850952 C482.58737472 27.16374123 480.32779485 25.71264712 478.0637207 24.26742554 C476.57485352 23.31223022 476.57485352 23.31223022 475.0559082 22.33773804 C463.07830612 14.90469237 450.08641014 10.49053247 436.5168457 6.92367554 C434.49661781 6.38323241 432.49541709 5.77217176 430.5012207 5.14242554 C420.38337032 2.56697271 409.77914758 3.11852259 399.41227722 3.12025452 C397.61607465 3.11695088 395.81987282 3.11322426 394.02367193 3.10911304 C389.10431943 3.09914194 384.18497913 3.09538417 379.26561797 3.09272373 C373.95313544 3.08880614 368.64066244 3.07922894 363.32818604 3.07051086 C350.50752271 3.0507885 337.68685866 3.04068609 324.86618397 3.03178307 C318.82049555 3.02739366 312.77480799 3.02202859 306.72912025 3.0167942 C286.61851146 2.99978695 266.5079032 2.98529394 246.39728832 2.97804546 C241.18364143 2.97613575 235.96999454 2.97421539 230.75634766 2.97225952 C229.46061254 2.97177578 228.16487741 2.97129204 226.82987759 2.97079364 C205.85109474 2.96249754 184.87236898 2.93716543 163.89361104 2.90467884 C142.32916527 2.87155893 120.76474847 2.85359229 99.20027715 2.85040122 C87.10315457 2.84824081 75.00611527 2.83956081 62.90901756 2.81394005 C52.60462362 2.79216569 42.30033323 2.7842157 31.99591889 2.79390683 C26.74570099 2.7984319 21.49569642 2.79667037 16.24550819 2.77714539 C-9.65499022 2.68627407 -33.67442038 2.85097076 -57.7487793 13.57992554 Z " fill="#FDFDF9" transform="translate(242.936279296875,100.73257446289063)"/>
<path d="M0 0 C0.92422479 2.99668349 1.01108524 5.08244035 0.41088867 8.15087891 C0.18020943 9.36331772 0.18020943 9.36331772 -0.05513 10.60025024 C-0.22900742 11.46693329 -0.40288483 12.33361633 -0.58203125 13.2265625 C-0.75627121 14.12941986 -0.93051117 15.03227722 -1.11003113 15.9624939 C-1.66956027 18.85161113 -2.24087894 21.73825348 -2.8125 24.625 C-3.18632024 26.54542254 -3.55937547 28.46599416 -3.93164062 30.38671875 C-5.59183928 38.93033276 -7.28931369 47.46636526 -9 56 C-9.33 56 -9.66 56 -10 56 C-10.33 54.02 -10.66 52.04 -11 50 C-11.66 50 -12.32 50 -13 50 C-13.66 50.66 -14.32 51.32 -15 52 C-15.825 52.185625 -16.65 52.37125 -17.5 52.5625 C-20.14334288 53.71633171 -20.14334288 53.71633171 -20.6640625 55.953125 C-20.9746328 57.5428238 -21.26329333 59.13694099 -21.53125 60.734375 C-22.11862419 63.57335027 -23.33189025 65.64948172 -25 68 C-25.33 67.34 -25.66 66.68 -26 66 C-25.21950689 63.73444414 -24.37664265 61.57463051 -23.4375 59.375 C-21.25216157 54.14154018 -19.18948919 48.87750214 -17.2109375 43.5625 C-14.24692771 35.60676926 -11.16766256 27.69958397 -8.0480957 19.80371094 C-7.16899644 17.57815581 -6.29238818 15.35163008 -5.41601562 13.125 C-4.85430951 11.7004645 -4.29246608 10.27598314 -3.73046875 8.8515625 C-3.47009323 8.19024323 -3.20971771 7.52892395 -2.94145203 6.8475647 C-1.11555268 2.23110536 -1.11555268 2.23110536 0 0 Z " fill="#F9D43B" transform="translate(416,349)"/>
<path d="M0 0 C0.33 0 0.66 0 1 0 C0.3227398 8.62318014 -1.10703561 17.10693769 -2.5625 25.625 C-2.79913324 27.02468803 -3.03546353 28.42442732 -3.27148438 29.82421875 C-3.84416995 33.21674297 -4.42093444 36.60855821 -5 40 C-5.33 40 -5.66 40 -6 40 C-6 37.69 -6 35.38 -6 33 C-9.50004048 34.81036577 -10.49307963 36.84241295 -11.6875 40.4375 C-12.34606163 42.61185712 -12.94832315 44.77324553 -13.453125 46.98828125 C-14.10040214 49.36933644 -15.03940322 51.5057877 -16.0625 53.75 C-16.42472656 54.54921875 -16.78695312 55.3484375 -17.16015625 56.171875 C-17.43730469 56.77515625 -17.71445312 57.3784375 -18 58 C-19.27569631 54.17291107 -18.48445695 52.80389895 -17.15625 49.03125 C-16.73730469 47.82871582 -16.31835938 46.62618164 -15.88671875 45.38720703 C-15.42473126 44.09138145 -14.96248666 42.79564751 -14.5 41.5 C-14.03709578 40.18236221 -13.57485891 38.86448979 -13.11328125 37.54638672 C-10.215729 29.29971232 -7.25177066 21.07573499 -4.15820312 12.90039062 C-2.55502541 8.6425745 -1.19248963 4.39157238 0 0 Z " fill="#F6D748" transform="translate(565,320)"/>
<path d="M0 0 C9.84104947 -0.28046872 19.68111919 -0.49245866 29.52538013 -0.62174606 C34.09886059 -0.68386321 38.66956967 -0.76781037 43.24145508 -0.90527344 C81.53196277 -2.02676876 81.53196277 -2.02676876 95.3711853 10.55700684 C97.74618714 12.6610592 100.32456943 14.30159152 103 16 C102.34 16.33 101.68 16.66 101 17 C98.7578125 15.8203125 98.7578125 15.8203125 96.125 14.125 C92.66303468 11.84860054 92.66303468 11.84860054 88.8046875 10.4921875 C87 10 87 10 85 7 C81.43230448 6.26393501 81.43230448 6.26393501 78 6 C77.505 4.02 77.505 4.02 77 2 C51.59 2 26.18 2 0 2 C0 1.34 0 0.68 0 0 Z " fill="#020007" transform="translate(503,193)"/>
<path d="M0 0 C0.99 0.495 0.99 0.495 2 1 C0.35 5.29 -1.3 9.58 -3 14 C-28.41 14 -53.82 14 -80 14 C-79.67 13.01 -79.34 12.02 -79 11 C-79 11.66 -79 12.32 -79 13 C-54.25 13 -29.5 13 -4 13 C-4 10.69 -4 8.38 -4 6 C-3.01 5.67 -2.02 5.34 -1 5 C-0.67 3.35 -0.34 1.7 0 0 Z " fill="#020002" transform="translate(428,706)"/>
<path d="M0 0 C1.07138687 3.29760194 0.90279404 5.60429626 0.22265625 8.984375 C-0.05288086 10.38623047 -0.05288086 10.38623047 -0.33398438 11.81640625 C-0.53314453 12.78449219 -0.73230469 13.75257813 -0.9375 14.75 C-1.13279297 15.73355469 -1.32808594 16.71710938 -1.52929688 17.73046875 C-2.01190558 20.15528321 -2.50238859 22.57822773 -3 25 C-3.33 25 -3.66 25 -4 25 C-4.33 23.35 -4.66 21.7 -5 20 C-6.65 23.3 -8.3 26.6 -10 30 C-11 28 -11 28 -10.21142578 25.41796875 C-9.7936084 24.35191406 -9.37579102 23.28585937 -8.9453125 22.1875 C-8.49542969 21.02992188 -8.04554688 19.87234375 -7.58203125 18.6796875 C-6.86080078 16.85824219 -6.86080078 16.85824219 -6.125 15 C-5.65191406 13.78570312 -5.17882812 12.57140625 -4.69140625 11.3203125 C-1.22169962 2.44339923 -1.22169962 2.44339923 0 0 Z " fill="#F2D956" transform="translate(416,349)"/>
<path d="M0 0 C0.33 0 0.66 0 1 0 C0.0933642 11.57407407 0.0933642 11.57407407 -0.625 16.5 C-1.18620916 19.80611402 -1.18620916 19.80611402 -0.4375 22.1875 C0.20971874 24.8688348 -0.85487501 26.57502943 -2 29 C-2.66 29 -3.32 29 -4 29 C-4.33 31.31 -4.66 33.62 -5 36 C-4.34 36 -3.68 36 -3 36 C-3 36.66 -3 37.32 -3 38 C-2.01 38.33 -1.02 38.66 0 39 C-0.66 39.99 -1.32 40.98 -2 42 C-2.45375 41.525625 -2.9075 41.05125 -3.375 40.5625 C-4.93258204 38.90972192 -4.93258204 38.90972192 -7 38 C-5.61132636 29.38511654 -4.04152269 20.81515148 -2.375 12.25 C-2.14554687 11.0640625 -1.91609375 9.878125 -1.6796875 8.65625 C-1.12116756 5.77056366 -0.561252 2.88515598 0 0 Z " fill="#0D071C" transform="translate(371,594)"/>
<path d="M0 0 C0.99 0.66 1.98 1.32 3 2 C2.70109863 2.57886963 2.40219727 3.15773926 2.09423828 3.75415039 C0.40785962 7.21532783 -0.83184924 10.81482167 -2.125 14.4375 C-2.40214844 15.18837891 -2.67929687 15.93925781 -2.96484375 16.71289062 C-4.35017617 20.59250382 -5.38278192 23.81436291 -5 28 C-5.66 28.33 -6.32 28.66 -7 29 C-7.90725434 31.11327425 -7.90725434 31.11327425 -8.625 33.5625 C-8.88539063 34.38878906 -9.14578125 35.21507812 -9.4140625 36.06640625 C-9.60742188 36.70449219 -9.80078125 37.34257813 -10 38 C-11.36917822 33.89246534 -9.98805329 31.00814622 -8.69140625 27.05078125 C-8.44583481 26.27816452 -8.20026337 25.50554779 -7.94725037 24.70951843 C-7.16058706 22.24111681 -6.36171989 19.77686129 -5.5625 17.3125 C-5.02718671 15.64023242 -4.49267147 13.96770915 -3.95898438 12.29492188 C-2.64856662 8.19358964 -1.32719002 4.09593396 0 0 Z " fill="#F4DB56" transform="translate(650,499)"/>
<path d="M0 0 C5.47035213 3.79037089 9.89962427 7.75027653 14 13 C13.67 13.66 13.34 14.32 13 15 C12.34 15 11.68 15 11 15 C9.98133771 13.34467377 8.98189187 11.67739862 8 10 C5.7763932 8.7018576 5.7763932 8.7018576 2 9 C2 8.01 2 7.02 2 6 C1.01 6 0.02 6 -1 6 C-0.67 4.02 -0.34 2.04 0 0 Z " fill="#060327" transform="translate(324,243)"/>
<path d="M0 0 C9.12447817 5.14363387 18.11551968 10.45088937 27 16 C26.34 16.66 25.68 17.32 25 18 C24.31292969 17.57847656 23.62585938 17.15695313 22.91796875 16.72265625 C22.01691406 16.17480469 21.11585938 15.62695312 20.1875 15.0625 C19.29417969 14.51722656 18.40085937 13.97195312 17.48046875 13.41015625 C14.99296438 11.88990422 14.99296438 11.88990422 12 11 C11.67 10.34 11.34 9.68 11 9 C11 9.99 11 10.98 11 12 C10.34 12 9.68 12 9 12 C8.7525 11.4225 8.505 10.845 8.25 10.25 C6.19121309 6.54418357 3.49990645 4.33327097 0 2 C0 1.34 0 0.68 0 0 Z " fill="#100A1D" transform="translate(646,234)"/>
<path d="M0 0 C9.1332335 4.67105081 17.54398613 10.22571792 26 16 C25.34 16.33 24.68 16.66 24 17 C21.7578125 15.8203125 21.7578125 15.8203125 19.125 14.125 C15.66303468 11.84860054 15.66303468 11.84860054 11.8046875 10.4921875 C10 10 10 10 8 7 C4.43230448 6.26393501 4.43230448 6.26393501 1 6 C0.67 4.02 0.34 2.04 0 0 Z " fill="#0C0616" transform="translate(580,193)"/>
<path d="M0 0 C0.66 0 1.32 0 2 0 C1.86722656 0.85980469 1.73445312 1.71960938 1.59765625 2.60546875 C0.52857511 9.76128924 -0.28751525 16.83529885 -0.65625 24.0625 C-1.02946321 27.25177655 -1.8907719 29.99434967 -3 33 C-3.66 33 -4.32 33 -5 33 C-3.35 22.11 -1.7 11.22 0 0 Z " fill="#1B1218" transform="translate(515,636)"/>
<path d="M0 0 C0.33 0 0.66 0 1 0 C0.41523944 7.09406894 -0.63233995 14.01563899 -2 21 C-2.66 20.34 -3.32 19.68 -4 19 C-5.32 22.63 -6.64 26.26 -8 30 C-9.01737528 25.93049888 -9.05427018 25.32282709 -7.63671875 21.69921875 C-7.32669922 20.88646484 -7.01667969 20.07371094 -6.69726562 19.23632812 C-6.36404297 18.39521484 -6.03082031 17.55410156 -5.6875 16.6875 C-3.54700364 11.16682101 -1.52228749 5.72596464 0 0 Z " fill="#E4CD5B" transform="translate(565,320)"/>
<path d="M0 0 C2 3 2 3 1.9074707 5.00195312 C1.74851318 5.75412109 1.58955566 6.50628906 1.42578125 7.28125 C1.25401367 8.11881836 1.08224609 8.95638672 0.90527344 9.81933594 C0.7096582 10.70395508 0.51404297 11.58857422 0.3125 12.5 C0.02874512 13.84626465 0.02874512 13.84626465 -0.26074219 15.21972656 C-1.61561589 21.5417089 -3.12587488 27.80970793 -5 34 C-5.66 34 -6.32 34 -7 34 C-6.61908203 32.20369141 -6.61908203 32.20369141 -6.23046875 30.37109375 C-4.0911243 20.25925074 -2.00076209 10.14022605 0 0 Z " fill="#1F1617" transform="translate(216,613)"/>
<path d="M0 0 C0.66 0.33 1.32 0.66 2 1 C0.35 5.62 -1.3 10.24 -3 15 C-3.33 15 -3.66 15 -4 15 C-4.96321989 12.0127167 -5.75870921 9.13678022 -6 6 C-4.125 2.9375 -4.125 2.9375 -2 1 C-1.34 1.33 -0.68 1.66 0 2 C0 1.34 0 0.68 0 0 Z " fill="#0E0825" transform="translate(464,604)"/>
<path d="M0 0 C3.99092412 2.28793238 7.65880191 4.90394143 11.3125 7.6875 C11.86228516 8.10322266 12.41207031 8.51894531 12.97851562 8.94726562 C14.32067925 9.96264158 15.66057622 10.98101253 17 12 C15.68 12.33 14.36 12.66 13 13 C12.67 12.01 12.34 11.02 12 10 C10.67696283 9.6278958 9.34262065 9.29369827 8 9 C7.67 8.34 7.34 7.68 7 7 C4.63813861 5.73854232 4.63813861 5.73854232 2 5 C1.01 5.33 0.02 5.66 -1 6 C-0.67 4.02 -0.34 2.04 0 0 Z " fill="#080428" transform="translate(506,258)"/>
<path d="M0 0 C1.23322843 3.58348444 0.7721117 6.18697824 0.00390625 9.859375 C-0.33930664 11.53193359 -0.33930664 11.53193359 -0.68945312 13.23828125 C-0.93630859 14.39714844 -1.18316406 15.55601562 -1.4375 16.75 C-1.68048828 17.92433594 -1.92347656 19.09867187 -2.17382812 20.30859375 C-2.77480798 23.20743777 -3.38380502 26.1043588 -4 29 C-4.86688859 26.10089716 -5.0458562 23.88547169 -4.66015625 20.890625 C-4.56669922 20.13652344 -4.47324219 19.38242187 -4.37695312 18.60546875 C-4.27318359 17.82816406 -4.16941406 17.05085938 -4.0625 16.25 C-3.96259766 15.45722656 -3.86269531 14.66445313 -3.75976562 13.84765625 C-3.51307129 11.89759629 -3.2574122 9.94867414 -3 8 C-2.34 8 -1.68 8 -1 8 C-1.020625 6.865625 -1.04125 5.73125 -1.0625 4.5625 C-1 1 -1 1 0 0 Z " fill="#EED555" transform="translate(397,450)"/>
<path d="M0 0 C0.33 0 0.66 0 1 0 C0.85796663 2.37528151 0.71148388 4.75015251 0.5625 7.125 C0.50352539 8.12273437 0.50352539 8.12273437 0.44335938 9.140625 C0.187848 13.15018817 -0.26782413 17.04994196 -1 21 C-0.34 21 0.32 21 1 21 C1 21.66 1 22.32 1 23 C0.34 23 -0.32 23 -1 23 C-1 23.66 -1 24.32 -1 25 C-1.66 25 -2.32 25 -3 25 C-3.33 25.99 -3.66 26.98 -4 28 C-2.88156738 18.62420318 -1.65562772 9.29969612 0 0 Z " fill="#1A1118" transform="translate(552,405)"/>
<path d="M0 0 C0.66 0 1.32 0 2 0 C0.67594074 6.06860493 -1.32850292 11.39763719 -4 17 C-6.0234375 13.2421875 -6.0234375 13.2421875 -5.8125 11.0625 C-4.79701418 8.4847283 -3.58035 6.275704 -2 4 C-1.34 4 -0.68 4 0 4 C0 2.68 0 1.36 0 0 Z " fill="#0A0522" transform="translate(341,534)"/>
<path d="M0 0 C3.04355645 3.77480053 5.36526811 7.91974724 7.75 12.125 C8.17410156 12.85332031 8.59820313 13.58164062 9.03515625 14.33203125 C10.08747764 16.18644777 11.05149458 18.09039837 12 20 C11.67 20.66 11.34 21.32 11 22 C9.66121428 19.8782637 8.32884524 17.75294812 7 15.625 C6.6184375 15.02171875 6.236875 14.4184375 5.84375 13.796875 C3 9.2265625 3 9.2265625 3 7 C2.01 6.67 1.02 6.34 0 6 C0 4.02 0 2.04 0 0 Z " fill="#EACF4E" transform="translate(535,251)"/>
<path d="M0 0 C0.66 0.33 1.32 0.66 2 1 C1.4603898 4.5614273 0.36901219 7.54427978 -1.1015625 10.8203125 C-3.00752718 15.44434855 -4.46143752 20.24373325 -6 25 C-7.22095366 21.50347185 -6.76884532 19.47527427 -5.56640625 16.015625 C-5.24736328 15.08105469 -4.92832031 14.14648438 -4.59960938 13.18359375 C-4.08624023 11.73146484 -4.08624023 11.73146484 -3.5625 10.25 C-3.22412109 9.26644531 -2.88574219 8.28289062 -2.53710938 7.26953125 C-1.7007587 4.84293634 -0.85478572 2.42014972 0 0 Z " fill="#EAD150" transform="translate(666,450)"/>
<path d="M0 0 C0.33 0 0.66 0 1 0 C1.33 3.3 1.66 6.6 2 10 C2.66 10 3.32 10 4 10 C4.19658808 11.41543415 4.38187546 12.83244031 4.5625 14.25 C4.66691406 15.03890625 4.77132812 15.8278125 4.87890625 16.640625 C5.00027349 19.00532874 4.69633257 20.7511037 4 23 C1.23065875 15.28540651 -0.29797895 8.19442106 0 0 Z " fill="#F7C920" transform="translate(91,675)"/>
<path d="M0 0 C1.2297824 3.68934721 0.59538429 4.53165574 -0.9375 8 C-2.251844 10.99403109 -3 12.70157885 -3 16 C-3.66 16 -4.32 16 -5 16 C-5.28875 17.134375 -5.5775 18.26875 -5.875 19.4375 C-6.24625 20.613125 -6.6175 21.78875 -7 23 C-7.66 23.33 -8.32 23.66 -9 24 C-3.57142857 7.14285714 -3.57142857 7.14285714 0 0 Z " fill="#EAD055" transform="translate(310,619)"/>
<path d="M0 0 C0.99 0.33 1.98 0.66 3 1 C3 1.66 3 2.32 3 3 C5.475 3.99 5.475 3.99 8 5 C8 7.97 8 10.94 8 14 C4.83454798 12.41727399 4.28879378 9.60316869 2.875 6.4375 C2.33617187 5.23996094 1.79734375 4.04242188 1.2421875 2.80859375 C0.83226562 1.88175781 0.42234375 0.95492188 0 0 Z " fill="#0B0622" transform="translate(404,303)"/>
<path d="M0 0 C5.1103144 1.1454153 9.37234081 2.45478745 14 5 C14 5.66 14 6.32 14 7 C14.66 7.33 15.32 7.66 16 8 C12.21193549 7.39363716 9.17104296 6.28838544 5.75 4.5625 C4.87859375 4.13066406 4.0071875 3.69882812 3.109375 3.25390625 C1 2 1 2 0 0 Z " fill="#F7CA25" transform="translate(166,788)"/>
<path d="M0 0 C0.99 0.33 1.98 0.66 3 1 C1.35 6.28 -0.3 11.56 -2 17 C-2.33 17 -2.66 17 -3 17 C-3 12.38 -3 7.76 -3 3 C-2.01 3.495 -2.01 3.495 -1 4 C-0.67 2.68 -0.34 1.36 0 0 Z " fill="#110A1C" transform="translate(658,467)"/>
<path d="M0 0 C1.31600093 3.94800278 0.07613159 6.39940306 -1.3125 10.125 C-1.53873047 10.77082031 -1.76496094 11.41664063 -1.99804688 12.08203125 C-3.73948991 16.86974496 -3.73948991 16.86974496 -6 18 C-6 15.36 -6 12.72 -6 10 C-5.34 9.67 -4.68 9.34 -4 9 C-3.34786708 6.97536745 -3.34786708 6.97536745 -3 5 C-2.34 5 -1.68 5 -1 5 C-0.67 3.35 -0.34 1.7 0 0 Z " fill="#110A1B" transform="translate(553,352)"/>
<path d="M0 0 C1.34173403 0.92543709 2.67320159 1.86577405 4 2.8125 C5.11375 3.59560547 5.11375 3.59560547 6.25 4.39453125 C7.11625 5.18923828 7.11625 5.18923828 8 6 C8 6.99 8 7.98 8 9 C7.67 8.34 7.34 7.68 7 7 C6.01 7 5.02 7 4 7 C3.34 6.34 2.68 5.68 2 5 C2.33 5.99 2.66 6.98 3 8 C2.01 8.495 2.01 8.495 1 9 C0.34 8.67 -0.32 8.34 -1 8 C-1.125 2.25 -1.125 2.25 0 0 Z " fill="#080424" transform="translate(312,232)"/>
<path d="M0 0 C2.95064148 -0.2208564 5.68368231 -0.28060989 8.625 -0.1875 C9.42679688 -0.17396484 10.22859375 -0.16042969 11.0546875 -0.14648438 C13.03674378 -0.11109051 15.01845551 -0.05728234 17 0 C17 0.33 17 0.66 17 1 C14.77149723 1.33774332 12.54216533 1.6700187 10.3125 2 C8.45044922 2.2784375 8.45044922 2.2784375 6.55078125 2.5625 C3.64113629 2.92100411 0.92299978 3.08942256 -2 3 C-1.34 2.01 -0.68 1.02 0 0 Z " fill="#F7CE33" transform="translate(217,105)"/>
<path d="M0 0 C0.66 1.32 1.32 2.64 2 4 C2.66 4 3.32 4 4 4 C4 4.66 4 5.32 4 6 C3.34 6 2.68 6 2 6 C2 6.66 2 7.32 2 8 C2.66 8 3.32 8 4 8 C3.67 8.99 3.34 9.98 3 11 C3 10.34 3 9.68 3 9 C2.01 9 1.02 9 0 9 C0 10.65 0 12.3 0 14 C-0.66 13.67 -1.32 13.34 -2 13 C-1.34 8.71 -0.68 4.42 0 0 Z " fill="#140D2A" transform="translate(378,555)"/>
<path d="M0 0 C0.33 0 0.66 0 1 0 C0.92909865 3.07454047 0.7524935 6.01122299 0 9 C-2.5625 11.0625 -2.5625 11.0625 -5 12 C-4.54965877 10.37276701 -4.08944646 8.74826336 -3.625 7.125 C-3.36976563 6.22007812 -3.11453125 5.31515625 -2.8515625 4.3828125 C-2 2 -2 2 0 0 Z " fill="#FED025" transform="translate(411,368)"/>
<path d="M0 0 C0.66 0.33 1.32 0.66 2 1 C1.79503906 1.60328125 1.59007812 2.2065625 1.37890625 2.828125 C1.10949219 3.62734375 0.84007812 4.4265625 0.5625 5.25 C0.29566406 6.03890625 0.02882813 6.8278125 -0.24609375 7.640625 C-1.01000665 9.92419695 -1.01000665 9.92419695 -1.46875 12 C-2.1015199 14.38219256 -3.04057087 16.508349 -4.0625 18.75 C-4.42472656 19.54921875 -4.78695312 20.3484375 -5.16015625 21.171875 C-5.43730469 21.77515625 -5.71445312 22.3784375 -6 23 C-7.1673418 19.4979746 -6.79056598 18.70383962 -5.56640625 15.33203125 C-5.24736328 14.43935547 -4.92832031 13.54667969 -4.59960938 12.62695312 C-4.25736328 11.69818359 -3.91511719 10.76941406 -3.5625 9.8125 C-3.22412109 8.87212891 -2.88574219 7.93175781 -2.53710938 6.96289062 C-1.69951191 4.63885258 -0.85354717 2.31821765 0 0 Z " fill="#EDD555" transform="translate(553,355)"/>
<path d="M0 0 C1.32 0.33 2.64 0.66 4 1 C3.67 1.66 3.34 2.32 3 3 C3.75 6.08333333 3.75 6.08333333 5 9 C5.66 9.33 6.32 9.66 7 10 C7.625 13.0625 7.625 13.0625 8 16 C7.34 16.33 6.68 16.66 6 17 C4.9932996 14.73192796 3.99448234 12.46092246 3 10.1875 C2.71382812 9.54490234 2.42765625 8.90230469 2.1328125 8.24023438 C0.86288959 5.32243531 0 3.21734286 0 0 Z " fill="#160F1D" transform="translate(230,275)"/>
<path d="M0 0 C1.32 0.33 2.64 0.66 4 1 C4 2.32 4 3.64 4 5 C4.99 5.9590625 4.99 5.9590625 6 6.9375 C8 9 8 9 8.25 11.75 C8.1675 12.4925 8.085 13.235 8 14 C7.01 14.495 7.01 14.495 6 15 C4.02 10.05 2.04 5.1 0 0 Z " fill="#0F0820" transform="translate(203,215)"/>
<path d="M0 0 C0.66 0.33 1.32 0.66 2 1 C2 3.31 2 5.62 2 8 C2.66 7.67 3.32 7.34 4 7 C4.66 7.66 5.32 8.32 6 9 C4.125 10.0625 4.125 10.0625 2 11 C1.34 10.67 0.68 10.34 0 10 C0.33 10.99 0.66 11.98 1 13 C0.01 13 -0.98 13 -2 13 C-1.34 8.71 -0.68 4.42 0 0 Z " fill="#160F27" transform="translate(350,704)"/>
<path d="M0 0 C0.66 0 1.32 0 2 0 C0.12275039 6.37732315 -1.85671642 12.70695459 -4 19 C-4.33 19 -4.66 19 -5 19 C-5 15.7 -5 12.4 -5 9 C-4.01 9 -3.02 9 -2 9 C-1.7834375 7.0509375 -1.7834375 7.0509375 -1.5625 5.0625 C-1.125 1.125 -1.125 1.125 0 0 Z " fill="#150D16" transform="translate(454,632)"/>
<path d="M0 0 C0.66 0.33 1.32 0.66 2 1 C-0.97 7.93 -0.97 7.93 -4 15 C-5 12 -5 12 -5 10 C-5.66 10 -6.32 10 -7 10 C-6.67 9.01 -6.34 8.02 -6 7 C-4.68 7 -3.36 7 -2 7 C-1.34 4.69 -0.68 2.38 0 0 Z " fill="#0F091D" transform="translate(407,368)"/>
<path d="M0 0 C0.66 0 1.32 0 2 0 C1.88487847 1.72985242 1.75744323 3.45888751 1.625 5.1875 C1.55539063 6.15042969 1.48578125 7.11335938 1.4140625 8.10546875 C0.99784147 11.01508938 0.20125904 13.32890774 -1 16 C-1.66 16 -2.32 16 -3 16 C-2.68806536 14.27073126 -2.37542638 12.54158956 -2.0625 10.8125 C-1.88847656 9.84957031 -1.71445313 8.88664062 -1.53515625 7.89453125 C-1.0476265 5.25760028 -0.53328895 2.6280095 0 0 Z " fill="#150D1A" transform="translate(250,459)"/>
<path d="M0 0 C0 2.64 0 5.28 0 8 C-1.98 8.99 -1.98 8.99 -4 10 C-4.79953138 6.71303767 -5.09658936 5.28976808 -4 2 C-1 0 -1 0 0 0 Z " fill="#0F0A2F" transform="translate(532,555)"/>
<path d="M0 0 C2.49361571 1.20381448 4.68143083 2.45428722 7 4 C7.33 3.34 7.66 2.68 8 2 C9.32 3.98 10.64 5.96 12 8 C11.67 8.66 11.34 9.32 11 10 C9.35063952 8.71284028 7.70560953 7.42012981 6.0625 6.125 C5.14597656 5.40570313 4.22945312 4.68640625 3.28515625 3.9453125 C1 2 1 2 0 0 Z " fill="#EBD35A" transform="translate(553,294)"/>
<path d="M0 0 C2.97 1.65 5.94 3.3 9 5 C8.67 6.65 8.34 8.3 8 10 C7.71125 9.360625 7.4225 8.72125 7.125 8.0625 C6.17176549 5.84793921 6.17176549 5.84793921 4 5 C4 5.66 4 6.32 4 7 C3.34 7 2.68 7 2 7 C1.34 4.69 0.68 2.38 0 0 Z " fill="#1D141F" transform="translate(712,275)"/>
<path d="M0 0 C3.63 1.98 7.26 3.96 11 6 C7.30581799 7.231394 4.7943739 6.64432764 1 6 C0.67 4.02 0.34 2.04 0 0 Z " fill="#160F23" transform="translate(580,193)"/>
<path d="M0 0 C1.25955231 3.77865693 0.48087189 5.03411786 -0.9375 8.6875 C-1.31777344 9.68136719 -1.69804687 10.67523437 -2.08984375 11.69921875 C-2.39019531 12.45847656 -2.69054687 13.21773437 -3 14 C-4.20628008 11.66785852 -5.1654738 9.50357861 -6 7 C-5.071875 6.6596875 -5.071875 6.6596875 -4.125 6.3125 C-1.38589791 4.62070165 -0.94975528 3.00755839 0 0 Z " fill="#0D071E" transform="translate(435,687)"/>
<path d="M0 0 C1.23593891 3.70781672 0.5678132 4.67510253 -0.9375 8.1875 C-1.31777344 9.08855469 -1.69804687 9.98960937 -2.08984375 10.91796875 C-2.54037109 11.94857422 -2.54037109 11.94857422 -3 13 C-4.01406317 9.95781049 -4.66083005 7.18819752 -5 4 C-4.34 3.34 -3.68 2.68 -3 2 C-2.34 2 -1.68 2 -1 2 C-0.67 1.34 -0.34 0.68 0 0 Z " fill="#100A1D" transform="translate(380,437)"/>
<path d="M0 0 C4.75 1.875 4.75 1.875 7 3 C7.8125 5.25 7.8125 5.25 8 8 C6.6875 10.625 6.6875 10.625 5 13 C4.01 14.485 4.01 14.485 3 16 C3.50797009 11.6822542 4.19682779 7.96697886 6 4 C5.195625 3.71125 4.39125 3.4225 3.5625 3.125 C1 2 1 2 0 0 Z " fill="#F5DA51" transform="translate(715,276)"/>
<path d="M0 0 C0.33 0 0.66 0 1 0 C1 5.28 1 10.56 1 16 C0.01 15.67 -0.98 15.34 -2 15 C-1.34 10.05 -0.68 5.1 0 0 Z " fill="#170E1E" transform="translate(536,505)"/>
<path d="M0 0 C3.98175544 2.10148204 6.35039045 4.36905358 9 8 C7.68 8.33 6.36 8.66 5 9 C2 4.25 2 4.25 2 2 C1.34 2 0.68 2 0 2 C0 1.34 0 0.68 0 0 Z " fill="#1C1424" transform="translate(284,206)"/>
<path d="M0 0 C0.99 0.33 1.98 0.66 3 1 C3.25 3.25 3.25 3.25 3 6 C1 8.3125 1 8.3125 -1 10 C-0.67 6.7 -0.34 3.4 0 0 Z " fill="#120C29" transform="translate(201,682)"/>
<path d="M0 0 C0.66 0.33 1.32 0.66 2 1 C0.35 5.62 -1.3 10.24 -3 15 C-4.07478554 11.77564339 -3.93162085 10.71203245 -3.1875 7.5 C-3.01605469 6.7265625 -2.84460938 5.953125 -2.66796875 5.15625 C-2 3 -2 3 0 0 Z " fill="#120B1D" transform="translate(543,379)"/>
<path d="M0 0 C5.61 0.33 11.22 0.66 17 1 C17.33 1.66 17.66 2.32 18 3 C15.56183415 3.0809723 13.12635616 3.14046972 10.6875 3.1875 C9.65206055 3.22520508 9.65206055 3.22520508 8.59570312 3.26367188 C6.57421875 3.29296875 6.57421875 3.29296875 3 3 C2.01 2.01 1.02 1.02 0 0 Z " fill="#F7C91D" transform="translate(653,104)"/>
<path d="M0 0 C1.55979598 6.23918393 -1.10302983 10.46942059 -4 16 C-4.66 15.67 -5.32 15.34 -6 15 C-4.02 10.05 -2.04 5.1 0 0 Z " fill="#F1D753" transform="translate(276,705)"/>
<path d="M0 0 C0.66 0.33 1.32 0.66 2 1 C0.68 5.29 -0.64 9.58 -2 14 C-3.17486927 9.30052291 -2.8391623 6.72982389 -2 2 C-1.34 1.34 -0.68 0.68 0 0 Z " fill="#18101E" transform="translate(619,591)"/>
<path d="M0 0 C-0.33 1.65 -0.66 3.3 -1 5 C-1.66 5 -2.32 5 -3 5 C-3.33 6.65 -3.66 8.3 -4 10 C-4.66 10 -5.32 10 -6 10 C-5.67 7.03 -5.34 4.06 -5 1 C-2 0 -2 0 0 0 Z " fill="#130C21" transform="translate(559,391)"/>
<path d="M0 0 C3.36591866 1.44253657 5.51047079 3.33264727 8 6 C7.01 6.495 7.01 6.495 6 7 C6 6.34 6 5.68 6 5 C4.35 5.66 2.7 6.32 1 7 C0.67 4.69 0.34 2.38 0 0 Z " fill="#140D23" transform="translate(541,286)"/>
<path d="M0 0 C0.99 0.33 1.98 0.66 3 1 C3.185625 2.2065625 3.185625 2.2065625 3.375 3.4375 C3.58125 4.283125 3.7875 5.12875 4 6 C4.66 6.33 5.32 6.66 6 7 C6 8.65 6 10.3 6 12 C5.34 12 4.68 12 4 12 C3.3291288 10.3767313 2.66342971 8.75132422 2 7.125 C1.62875 6.22007812 1.2575 5.31515625 0.875 4.3828125 C0 2 0 2 0 0 Z " fill="#130C1C" transform="translate(255,332)"/>
<path d="M0 0 C1.98 0.99 1.98 0.99 4 2 C4 2.99 4 3.98 4 5 C4.99 5.33 5.98 5.66 7 6 C6.67 7.98 6.34 9.96 6 12 C3.25207517 8.59780735 0 4.51535412 0 0 Z " fill="#0D061A" transform="translate(393,280)"/>
<path d="M0 0 C2.97 1.98 2.97 1.98 6 4 C4 6 4 6 0.875 6.125 C-0.548125 6.063125 -0.548125 6.063125 -2 6 C-1.34 4.02 -0.68 2.04 0 0 Z " fill="#0F0928" transform="translate(528,275)"/>
<path d="M0 0 C2.97 1.65 5.94 3.3 9 5 C7.02 5.99 7.02 5.99 5 7 C4.67 6.01 4.34 5.02 4 4 C2.35 3.67 0.7 3.34 -1 3 C-0.67 2.01 -0.34 1.02 0 0 Z " fill="#110B23" transform="translate(625,221)"/>
<path d="M0 0 C1.2380014 3.57644848 0.74926071 6.33694766 0 10 C-0.66 10 -1.32 10 -2 10 C-2 10.66 -2 11.32 -2 12 C-2.66 11.67 -3.32 11.34 -4 11 C-3.5247412 9.35303396 -3.04468109 7.70745272 -2.5625 6.0625 C-2.29566406 5.14597656 -2.02882813 4.22945312 -1.75390625 3.28515625 C-1 1 -1 1 0 0 Z " fill="#EED34D" transform="translate(589,690)"/>
<path d="M0 0 C0.33 0 0.66 0 1 0 C0.88557539 1.60495567 0.75805306 3.20898119 0.625 4.8125 C0.55539062 5.70582031 0.48578125 6.59914063 0.4140625 7.51953125 C0 10 0 10 -2 13 C-3.71050559 8.02398374 -2.00885647 4.57383705 0 0 Z " fill="#FED226" transform="translate(561,336)"/>
<path d="M0 0 C3.32901247 2.21934164 3.75023244 3.34683329 5 7 C4.34 7.66 3.68 8.32 3 9 C2.34 8.34 1.68 7.68 1 7 C0.01 7.495 0.01 7.495 -1 8 C-0.67 5.36 -0.34 2.72 0 0 Z " fill="#030022" transform="translate(566,321)"/>
<path d="M0 0 C0.33 0.66 0.66 1.32 1 2 C0.67 2.99 0.34 3.98 0 5 C0.99 5.33 1.98 5.66 3 6 C2.67 6.66 2.34 7.32 2 8 C1.01 8.33 0.02 8.66 -1 9 C-1.66 9.66 -2.32 10.32 -3 11 C-2.69217504 9.35328588 -2.37860766 7.70764424 -2.0625 6.0625 C-1.88847656 5.14597656 -1.71445312 4.22945313 -1.53515625 3.28515625 C-1 1 -1 1 0 0 Z " fill="#F7DA4B" transform="translate(709,318)"/>
<path d="M0 0 C3.36591866 1.44253657 5.51047079 3.33264727 8 6 C6 6.66666667 4 7.33333333 2 8 C1.34 5.36 0.68 2.72 0 0 Z " fill="#03001C" transform="translate(474,233)"/>
<path d="M0 0 C0.33 0 0.66 0 1 0 C1.33 1.98 1.66 3.96 2 6 C1.01 6.33 0.02 6.66 -1 7 C-1.33 8.98 -1.66 10.96 -2 13 C-3.18414294 9.44757118 -2.69535532 8.30169438 -1.5625 4.8125 C-1.27503906 3.91144531 -0.98757813 3.01039063 -0.69140625 2.08203125 C-0.46324219 1.39496094 -0.23507812 0.70789063 0 0 Z " fill="#E6C950" transform="translate(600,654)"/>
<path d="M0 0 C0.99 0.33 1.98 0.66 3 1 C2.01 4.3 1.02 7.6 0 11 C-0.33 11 -0.66 11 -1 11 C-1.0270043 9.54176788 -1.04639787 8.08339325 -1.0625 6.625 C-1.07410156 5.81289063 -1.08570313 5.00078125 -1.09765625 4.1640625 C-1 2 -1 2 0 0 Z " fill="#0D0726" transform="translate(631,550)"/>
<path d="M0 0 C0.33 0 0.66 0 1 0 C1.19294408 4.82360189 0.75747614 8.49646738 -1 13 C-1.33 13 -1.66 13 -2 13 C-2 9.37 -2 5.74 -2 2 C-1.34 2 -0.68 2 0 2 C0 1.34 0 0.68 0 0 Z " fill="#EED44F" transform="translate(238,508)"/>
<path d="M0 0 C0.66 0 1.32 0 2 0 C2.33 0.66 2.66 1.32 3 2 C3.66 1.34 4.32 0.68 5 0 C5.33 0.66 5.66 1.32 6 2 C5.0625 4.625 5.0625 4.625 4 7 C2.68 6.34 1.36 5.68 0 5 C0 3.35 0 1.7 0 0 Z " fill="#0A0622" transform="translate(511,458)"/>
<path d="M0 0 C1.32 0 2.64 0 4 0 C4 0.66 4 1.32 4 2 C4.66 2.33 5.32 2.66 6 3 C5.34 3.66 4.68 4.32 4 5 C4 5.99 4 6.98 4 8 C1.84622436 5.37801226 0.59927826 3.35595828 0 0 Z " fill="#070222" transform="translate(412,317)"/>
<path d="M0 0 C0.66 0 1.32 0 2 0 C2.33 1.32 2.66 2.64 3 4 C4.32 3.67 5.64 3.34 7 3 C6.34 4.98 5.68 6.96 5 9 C4.01 9 3.02 9 2 9 C2.33 8.01 2.66 7.02 3 6 C1.62507196 2.8331162 1.62507196 2.8331162 0 0 Z " fill="#1D1423" transform="translate(561,296)"/>
<path d="M0 0 C0.66 0.33 1.32 0.66 2 1 C0.68 4.63 -0.64 8.26 -2 12 C-2.33 12 -2.66 12 -3 12 C-3.33 10.02 -3.66 8.04 -4 6 C-3.01 5.67 -2.02 5.34 -1 5 C-0.67 3.35 -0.34 1.7 0 0 Z " fill="#0E0819" transform="translate(428,706)"/>
<path d="M0 0 C1.5625 1.625 1.5625 1.625 3 4 C2.6875 7.25 2.6875 7.25 2 10 C0.68 9.01 -0.64 8.02 -2 7 C-1.34 4.69 -0.68 2.38 0 0 Z " fill="#050223" transform="translate(607,619)"/>
<path d="M0 0 C3.33511388 2.9901021 5.21521119 5.89498574 7 10 C7 10.66 7 11.32 7 12 C6.34 12 5.68 12 5 12 C4.16180842 10.37750059 3.3295884 8.75191503 2.5 7.125 C2.0359375 6.22007812 1.571875 5.31515625 1.09375 4.3828125 C0 2 0 2 0 0 Z " fill="#EAD052" transform="translate(402,301)"/>
<path d="M0 0 C1.29315061 0.95632999 2.58446853 1.91513851 3.875 2.875 C4.59429688 3.40867187 5.31359375 3.94234375 6.0546875 4.4921875 C8 6 8 6 10 8 C8.35 7.67 6.7 7.34 5 7 C5 6.34 5 5.68 5 5 C3.68 4.67 2.36 4.34 1 4 C0.67 2.68 0.34 1.36 0 0 Z " fill="#130C1A" transform="translate(513,263)"/>
<path d="M0 0 C3.36720387 1.39332574 4.9859524 2.9789286 7 6 C6.67 6.66 6.34 7.32 6 8 C5.34 8 4.68 8 4 8 C2.21694476 5.36107824 1.00940379 3.02821137 0 0 Z " fill="#201723" transform="translate(331,250)"/>
<path d="M0 0 C2.64 0.33 5.28 0.66 8 1 C8 1.66 8 2.32 8 3 C8.99 3.33 9.98 3.66 11 4 C8 5 8 5 5.95703125 4.22265625 C5.24933594 3.83980469 4.54164063 3.45695312 3.8125 3.0625 C3.09707031 2.68222656 2.38164063 2.30195312 1.64453125 1.91015625 C1.10183594 1.60980469 0.55914063 1.30945313 0 1 C0 0.67 0 0.34 0 0 Z " fill="#F7CF36" transform="translate(696,115)"/>
<path d="M0 0 C1.60080151 4.00200378 0.29279692 7.04556236 -1 11 C-1.66 11 -2.32 11 -3 11 C-3.33 9.35 -3.66 7.7 -4 6 C-3.01 6 -2.02 6 -1 6 C-0.67 4.02 -0.34 2.04 0 0 Z " fill="#10091B" transform="translate(641,523)"/>
<path d="M0 0 C0.99 0.66 1.98 1.32 3 2 C1.79618552 4.49361571 0.54571278 6.68143083 -1 9 C-2.25541557 5.23375329 -1.37061958 3.62811066 0 0 Z " fill="#F0D043" transform="translate(650,499)"/>
<path d="M0 0 C2.475 0.495 2.475 0.495 5 1 C5 1.99 5 2.98 5 4 C3.68 4.33 2.36 4.66 1 5 C0.67 3.35 0.34 1.7 0 0 Z " fill="#120D2A" transform="translate(375,293)"/>
<path d="M0 0 C1.32 0 2.64 0 4 0 C4.66 2.64 5.32 5.28 6 8 C5.01 8.495 5.01 8.495 4 9 C2.68 6.03 1.36 3.06 0 0 Z " fill="#140D20" transform="translate(361,219)"/>
<path d="M0 0 C0.33 0 0.66 0 1 0 C1 3.63 1 7.26 1 11 C0.01 11 -0.98 11 -2 11 C-1.34 7.37 -0.68 3.74 0 0 Z " fill="#271C22" transform="translate(241,499)"/>
<path d="M0 0 C1.32 0 2.64 0 4 0 C5.35439668 2.70879335 5.06501451 5.00933268 5 8 C2.74754119 5.31158141 1.11786042 3.35358125 0 0 Z " fill="#0D0722" transform="translate(541,261)"/>
<path d="M0 0 C1.98 0.99 1.98 0.99 4 2 C4.75 5.125 4.75 5.125 5 8 C4.01 8.495 4.01 8.495 3 9 C2.01 6.03 1.02 3.06 0 0 Z " fill="#08041D" transform="translate(247,314)"/>
<path d="M0 0 C1.32 0.33 2.64 0.66 4 1 C4.33 3.64 4.66 6.28 5 9 C2.67527795 6.14693203 1.2491742 3.45925163 0 0 Z " fill="#160E1C" transform="translate(399,293)"/>
<path d="M0 0 C1.32 0.33 2.64 0.66 4 1 C4.66 3.97 5.32 6.94 6 10 C2.62358918 6.62358918 1.72549695 4.35482564 0 0 Z " fill="#160F1C" transform="translate(386,268)"/>
<path d="M0 0 C3.36720387 1.39332574 4.9859524 2.9789286 7 6 C4 6 4 6 1.8125 4.125 C0 2 0 2 0 0 Z " fill="#221820" transform="translate(346,264)"/>
<path d="M0 0 C2.31 1.98 4.62 3.96 7 6 C6.01 6.66 5.02 7.32 4 8 C0 2.25 0 2.25 0 0 Z " fill="#07031A" transform="translate(338,256)"/>
<path d="M0 0 C1.32 0.33 2.64 0.66 4 1 C4.33 3.64 4.66 6.28 5 9 C2.67527795 6.14693203 1.2491742 3.45925163 0 0 Z " fill="#18101E" transform="translate(378,252)"/>
<path d="M0 0 C2.31 1.65 4.62 3.3 7 5 C5.68 5.33 4.36 5.66 3 6 C3 5.34 3 4.68 3 4 C2.01 3.67 1.02 3.34 0 3 C0 2.01 0 1.02 0 0 Z " fill="#0D061E" transform="translate(489,244)"/>
<path d="M0 0 C0.33 0.66 0.66 1.32 1 2 C-0.65 4.31 -2.3 6.62 -4 9 C-4.33 8.01 -4.66 7.02 -5 6 C-4.34 5.01 -3.68 4.02 -3 3 C-2.34 3 -1.68 3 -1 3 C-0.67 2.01 -0.34 1.02 0 0 Z " fill="#F7CA24" transform="translate(773,733)"/>
<path d="M0 0 C0.33 0 0.66 0 1 0 C1.08159574 4.16138263 0.98248524 7.9472484 0 12 C-0.33 12 -0.66 12 -1 12 C-2.42857143 3.42857143 -2.42857143 3.42857143 0 0 Z " fill="#FCE358" transform="translate(527,553)"/>
<path d="M0 0 C1.13757948 4.55031791 0.4283779 6.63084406 -1 11 C-1.66 10.67 -2.32 10.34 -3 10 C-2.01 6.7 -1.02 3.4 0 0 Z " fill="#E3C74E" transform="translate(522,443)"/>
<path d="M0 0 C2 1 2 1 2.8515625 3.06640625 C3.10679687 3.89011719 3.36203125 4.71382813 3.625 5.5625 C3.88539063 6.38878906 4.14578125 7.21507812 4.4140625 8.06640625 C4.60742188 8.70449219 4.80078125 9.34257812 5 10 C2.57000464 7.72635823 1.57194165 6.31726155 1 3 C0.34 3 -0.32 3 -1 3 C-0.67 2.01 -0.34 1.02 0 0 Z " fill="#ECD24F" transform="translate(221,258)"/>
</svg>
